<svg width="474" height="94" viewBox="0 0 474 94" fill="none" xmlns="http://www.w3.org/2000/svg">
<g clip-path="url(#clip0_288_3161)">
<path d="M68.5536 0C63.1477 0 58.7603 4.38667 58.7603 9.79167V84.2083C58.7603 89.6133 63.1477 94 68.5536 94C73.9596 94 78.347 89.6133 78.347 84.2083V9.79167C78.347 4.38667 73.9596 0 68.5536 0Z" fill="black"/>
<path d="M250.162 3.01586C246.323 -1.01831 240.134 -1.01831 236.295 3.01586L203.702 37.4434C203.702 37.4434 203.702 37.4434 203.702 37.4825V9.79169C203.702 4.38669 199.315 2.60323e-05 193.909 2.60323e-05C188.503 2.60323e-05 184.116 4.38669 184.116 9.79169V84.2084C184.116 89.6134 188.503 94 193.909 94C199.315 94 203.702 89.6134 203.702 84.2084V54.8334C203.702 54.8334 203.702 54.8334 203.702 54.8725L236.295 89.3C240.134 93.3342 246.323 93.3342 250.162 89.3C254.001 85.2659 254.001 78.725 250.162 74.6909L223.172 46.1775L250.162 17.6642C254.001 13.63 254.001 7.08919 250.162 3.05503V3.01586Z" fill="black"/>
<path d="M162.57 0C157.164 0 152.777 4.38667 152.777 9.79167V58.9458L108.472 5.17C106.983 2.38917 104.202 0.430833 100.911 0.1175C100.715 0.1175 100.519 0.0783333 100.324 0.0783333C100.167 0.0783333 100.049 0.0391667 99.8926 0.0391667C99.7359 0.0391667 99.6184 0.0391667 99.4617 0.0783333C98.9916 0.0783333 98.5216 0.156667 98.0515 0.235C97.9731 0.235 97.934 0.235 97.8556 0.235C96.367 0.548333 94.8784 1.13583 93.6249 2.19333C91.8621 3.6425 90.7652 5.64 90.3735 7.71583C90.3735 7.79417 90.3735 7.8725 90.3343 7.91167C90.2559 8.38167 90.2168 8.85167 90.1776 9.32167C90.1776 9.47833 90.1384 9.59583 90.1384 9.7525V84.1692C90.1384 89.5742 94.5259 93.9608 99.9318 93.9608C105.338 93.9608 109.725 89.5742 109.725 84.1692V36.7775L153.835 90.3183C155.637 92.4725 158.183 93.6475 160.768 93.765C161.356 93.8825 161.983 93.9608 162.609 93.9608C168.015 93.9608 172.403 89.5742 172.403 84.1692V9.79167C172.364 4.38667 167.976 0 162.57 0Z" fill="black"/>
<path d="M41.1322 74.4167H19.5868V9.79167C19.5868 4.38667 15.1993 0 9.79339 0C4.38744 0 0 4.38667 0 9.79167V84.2083C0 89.6133 4.38744 94 9.79339 94H41.1322C46.5382 94 50.9256 89.6133 50.9256 84.2083C50.9256 78.8033 46.5382 74.4167 41.1322 74.4167Z" fill="#353EFF"/>
<path d="M464.207 74.4167H442.661V9.79167C442.661 4.38667 438.274 0 432.868 0C427.462 0 423.074 4.38667 423.074 9.79167V84.2083C423.074 89.6133 427.462 94 432.868 94H464.207C469.613 94 474 89.6133 474 84.2083C474 78.8033 469.613 74.4167 464.207 74.4167Z" fill="black"/>
<path d="M293.41 0H270.728V0.156667C266.028 0.900833 262.424 4.89583 262.424 9.79167V82.485C262.424 87.89 266.811 92.2767 272.217 92.2767C277.623 92.2767 282.01 87.89 282.01 82.485V18.2517H293.958C303.086 18.2517 311.234 24.0875 312.135 32.0775C312.918 39.2058 308.178 45.4333 301.245 47.9008C297.484 49.2325 294.781 52.2092 294.781 55.7733V57.5358C294.781 63.3325 301.323 67.2492 307.512 65.33C323.103 60.4733 334.072 46.9217 332.897 31.2942C331.526 13.4733 313.741 0 293.41 0Z" fill="black"/>
<path d="M375.674 0H352.993V0.156667C348.292 0.900833 344.688 4.89583 344.688 9.79167V82.485C344.688 87.89 349.075 92.2767 354.481 92.2767C359.887 92.2767 364.275 87.89 364.275 82.485V18.2517H376.223C385.35 18.2517 393.498 24.0875 394.399 32.0775C395.183 39.2058 390.443 45.4333 383.509 47.9008C379.748 49.2325 377.045 52.2092 377.045 55.7733V57.5358C377.045 63.3325 383.587 67.2492 389.777 65.33C405.368 60.4733 416.336 46.9217 415.161 31.2942C413.79 13.4733 396.005 0 375.674 0Z" fill="black"/>
</g>
<defs>
<clipPath id="clip0_288_3161">
<rect width="474" height="94" fill="white"/>
</clipPath>
</defs>
</svg>
